<svg xmlns="http://www.w3.org/2000/svg" viewBox="0 0 512 512" width="100%" height="100%" shape-rendering="geometricPrecision">
    <defs>
        <linearGradient id="plateGradient" x1="0%" y1="0%" x2="100%" y2="100%">
            <stop offset="0%" stop-color="#405dff" />
            <stop offset="100%" stop-color="#1d0091" />
        </linearGradient>
        <linearGradient id="borderHighlight" x1="0%" y1="0%" x2="0%" y2="100%">
            <stop offset="0%" stop-color="#ffffff" stop-opacity="0.3" />
            <stop offset="100%" stop-color="#ffffff" stop-opacity="0.0" />
        </linearGradient>
    </defs>
    <g transform="translate(-12, -8) scale(1.08)">
        <path d="M 194,22 C 212,12 236,12 254,22 L 398,105 C 416,115 428,136 428,157 L 428,323 C 428,344 416,365 398,375 L 254,458 C 236,468 212,468 194,458 L 50,375 C 32,365 20,344 20,323 L 20,157 C 20,136 32,115 50,105 Z" fill="url(#plateGradient)" />
        <path d="M 197,28 C 213,19 235,19 251,28 L 393,110 C 409,119 420,138 420,157 L 420,323 C 420,342 409,361 393,370 L 251,452 C 235,461 213,461 197,452 L 55,370 C 39,361 28,342 28,323 L 28,157 C 28,138 39,119 55,110 Z" fill="none" stroke="url(#borderHighlight)" stroke-width="5" />

        <g stroke="#ffffff" stroke-width="28" stroke-linecap="round" stroke-linejoin="round" fill="none">
            <path d="M 210,140 C 150,140 130,185 130,240 C 130,295 150,340 210,340" />
            <path d="M 210,140 L 250,140 C 310,140 320,185 320,240 C 320,295 310,340 250,340 L 210,340 Z" fill="#ffffff" fill-opacity="0.2" />
            <line x1="210" y1="140" x2="210" y2="340" stroke-width="20" />
        </g>
    </g>
</svg>
